<svg width="1440" height="1024" viewBox="0 0 1440 1024" fill="none" xmlns="http://www.w3.org/2000/svg">
<g opacity="0.2">
<line x1="158.83" y1="1.34315e-08" x2="158.83" y2="1024" stroke="#999C9C" stroke-opacity="0.4" stroke-width="0.966443"/>
<line x1="1440" y1="666.483" y2="666.483" stroke="#999C9C" stroke-opacity="0.4" stroke-width="0.966443"/>
<line x1="408.83" y1="1.34315e-08" x2="408.83" y2="1024" stroke="#999C9C" stroke-opacity="0.4" stroke-width="0.966443"/>
<line x1="1440" y1="868.235" y2="868.235" stroke="#999C9C" stroke-opacity="0.4" stroke-width="0.966443"/>
<line x1="657.83" y1="1.34381e-08" x2="657.83" y2="1024" stroke="#999C9C" stroke-opacity="0.4" stroke-width="0.966443"/>
<line x1="907.483" y1="-2.11223e-08" x2="907.483" y2="1024" stroke="#999C9C" stroke-opacity="0.4" stroke-width="0.966443"/>
<line x1="1157.83" y1="1.34315e-08" x2="1157.83" y2="1024" stroke="#999C9C" stroke-opacity="0.4" stroke-width="0.966443"/>
<line x1="283.83" y1="1.34315e-08" x2="283.83" y2="1024" stroke="#999C9C" stroke-opacity="0.4" stroke-width="0.966443"/>
<line x1="1440" y1="767.483" y2="767.483" stroke="#999C9C" stroke-opacity="0.4" stroke-width="0.966443"/>
<line x1="533.483" y1="-2.11223e-08" x2="533.483" y2="1024" stroke="#999C9C" stroke-opacity="0.4" stroke-width="0.966443"/>
<line x1="1440" y1="970.235" x2="-4.26164e-08" y2="970.235" stroke="#999C9C" stroke-opacity="0.4" stroke-width="0.966443"/>
<line x1="1440" y1="260.483" y2="260.483" stroke="#999C9C" stroke-opacity="0.4" stroke-width="0.966443"/>
<line x1="1440" y1="462.235" y2="462.235" stroke="#999C9C" stroke-opacity="0.4" stroke-width="0.966443"/>
<line x1="1440" y1="361.483" y2="361.483" stroke="#999C9C" stroke-opacity="0.4" stroke-width="0.966443"/>
<line x1="1440" y1="564.235" x2="-4.26164e-08" y2="564.235" stroke="#999C9C" stroke-opacity="0.4" stroke-width="0.966443"/>
<line x1="1440" y1="56.2352" y2="56.2352" stroke="#999C9C" stroke-opacity="0.4" stroke-width="0.966443"/>
<line x1="1440" y1="158.235" x2="-4.26164e-08" y2="158.235" stroke="#999C9C" stroke-opacity="0.4" stroke-width="0.966443"/>
<line x1="782.83" y1="1.34381e-08" x2="782.83" y2="1024" stroke="#999C9C" stroke-opacity="0.4" stroke-width="0.966443"/>
<line x1="1032.83" y1="1.34315e-08" x2="1032.83" y2="1024" stroke="#999C9C" stroke-opacity="0.4" stroke-width="0.966443"/>
<line x1="1281.83" y1="1.34315e-08" x2="1281.83" y2="1024" stroke="#999C9C" stroke-opacity="0.4" stroke-width="0.966443"/>
</g>
</svg>
